{
  "accessors": [
    {
      "bufferView": 2,
      "componentType": 5126,
      "count": 65532,
      "max": [
        3.9766619205474854,
        12.212196350097656,
        2.132620096206665
      ],
      "min": [
        -8.109932899475098,
        9.285534858703613,
        -0.19318200647830963
      ],
      "type": "VEC3"
    },
    {
      "bufferView": 2,
      "byteOffset": 786384,
      "componentType": 5126,
      "count": 65532,
      "max": [
        0.9999972581863403,
        0.9999979734420776,
        0.999998927116394
      ],
      "min": [
        -0.9999816417694092,
        -0.9999849200248718,
        -0.999999463558197
      ],
      "type": "VEC3"
    },
    {
      "bufferView": 1,
      "componentType": 5126,
      "count": 65532,
      "max": [
        1.0,
        0.9177070260047913
      ],
      "min": [
        0.00015100000018719584,
        0.0030950000509619713
      ],
      "type": "VEC2"
    },
    {
      "bufferView": 0,
      "componentType": 5125,
      "count": 345321,
      "type": "SCALAR"
    },
    {
      "bufferView": 2,
      "byteOffset": 1572768,
      "componentType": 5126,
      "count": 65532,
      "max": [
        3.9720358848571777,
        12.336311340332031,
        1.5458420515060425
      ],
      "min": [
        -8.109932899475098,
        9.22284984588623,
        -0.19862399995326996
      ],
      "type": "VEC3"
    },
    {
      "bufferView": 2,
      "byteOffset": 2359152,
      "componentType": 5126,
      "count": 65532,
      "max": [
        0.9999972581863403,
        0.9999995827674866,
        0.9999763369560242
      ],
      "min": [
        -0.9999731183052063,
        -0.9999881386756897,
        -0.9999970197677612
      ],
      "type": "VEC3"
    },
    {
      "bufferView": 1,
      "byteOffset": 524256,
      "componentType": 5126,
      "count": 65532,
      "max": [
        0.9977309703826904,
        0.9694280028343201
      ],
      "min": [
        0.0020979999098926783,
        0.0
      ],
      "type": "VEC2"
    },
    {
      "bufferView": 0,
      "byteOffset": 1381284,
      "componentType": 5125,
      "count": 323067,
      "type": "SCALAR"
    },
    {
      "bufferView": 2,
      "byteOffset": 3145536,
      "componentType": 5126,
      "count": 65532,
      "max": [
        3.9569320678710938,
        12.339859962463379,
        0.9499419927597046
      ],
      "min": [
        -8.096546173095703,
        8.98936653137207,
        -0.17590300738811493
      ],
      "type": "VEC3"
    },
    {
      "bufferView": 2,
      "byteOffset": 3931920,
      "componentType": 5126,
      "count": 65532,
      "max": [
        0.9996192455291748,
        0.9999927282333374,
        0.9999926090240479
      ],
      "min": [
        -0.9992662072181702,
        -0.9999849200248718,
        -0.9999914169311523
      ],
      "type": "VEC3"
    },
    {
      "bufferView": 1,
      "byteOffset": 1048512,
      "componentType": 5126,
      "count": 65532,
      "max": [
        0.9998340010643005,
        0.9642459750175476
      ],
      "min": [
        1.9999999949504854e-06,
        0.02976600080728531
      ],
      "type": "VEC2"
    },
    {
      "bufferView": 0,
      "byteOffset": 2673552,
      "componentType": 5125,
      "count": 316551,
      "type": "SCALAR"
    },
    {
      "bufferView": 2,
      "byteOffset": 4718304,
      "componentType": 5126,
      "count": 65532,
      "max": [
        3.9319911003112793,
        12.339713096618652,
        0.7938640117645264
      ],
      "min": [
        -8.07577896118164,
        9.006752014160156,
        -0.193790003657341
      ],
      "type": "VEC3"
    },
    {
      "bufferView": 2,
      "byteOffset": 5504688,
      "componentType": 5126,
      "count": 65532,
      "max": [
        0.9999573230743408,
        0.9999890923500061,
        0.9999750852584839
      ],
      "min": [
        -0.9999387860298157,
        -0.9999858140945435,
        -0.9999998807907104
      ],
      "type": "VEC3"
    },
    {
      "bufferView": 1,
      "byteOffset": 1572768,
      "componentType": 5126,
      "count": 65532,
      "max": [
        1.0,
        0.9653069972991943
      ],
      "min": [
        0.01361900009214878,
        0.004213999956846237
      ],
      "type": "VEC2"
    },
    {
      "bufferView": 0,
      "byteOffset": 3939756,
      "componentType": 5125,
      "count": 305841,
      "type": "SCALAR"
    },
    {
      "bufferView": 2,
      "byteOffset": 6291072,
      "componentType": 5126,
      "count": 57717,
      "max": [
        3.8976759910583496,
        12.332777976989746,
        0.6755970120429993
      ],
      "min": [
        -7.966609001159668,
        9.002338409423828,
        -0.19773399829864502
      ],
      "type": "VEC3"
    },
    {
      "bufferView": 2,
      "byteOffset": 6983676,
      "componentType": 5126,
      "count": 57717,
      "max": [
        0.9996275305747986,
        0.9999868273735046,
        0.9998958110809326
      ],
      "min": [
        -0.9998832941055298,
        -0.9999720454216003,
        -0.9999998807907104
      ],
      "type": "VEC3"
    },
    {
      "bufferView": 1,
      "byteOffset": 2097024,
      "componentType": 5126,
      "count": 57717,
      "max": [
        1.0,
        0.9691659808158875
      ],
      "min": [
        0.0,
        0.0007750000222586095
      ],
      "type": "VEC2"
    },
    {
      "bufferView": 0,
      "byteOffset": 5163120,
      "componentType": 5125,
      "count": 209220,
      "type": "SCALAR"
    }
  ],
  "asset": {
    "extras": {
      "author": "Ragnar Saage (https://sketchfab.com/r.saage)",
      "license": "CC-BY-4.0 (http://creativecommons.org/licenses/by/4.0/)",
      "source": "https://sketchfab.com/3d-models/noorem-muumia-younger-mummy-9edc0a6bbdb64a8ebee28720df72b75f",
      "title": "Noorem muumia / Younger mummy"
    },
    "generator": "Sketchfab-12.67.0",
    "version": "2.0"
  },
  "bufferViews": [
    {
      "buffer": 0,
      "byteLength": 6000000,
      "name": "floatBufferViews",
      "target": 34963
    },
    {
      "buffer": 0,
      "byteLength": 2558760,
      "byteOffset": 6000000,
      "byteStride": 8,
      "name": "floatBufferViews",
      "target": 34962
    },
    {
      "buffer": 0,
      "byteLength": 7676280,
      "byteOffset": 8558760,
      "byteStride": 12,
      "name": "floatBufferViews",
      "target": 34962
    }
  ],
  "buffers": [
    {
      "byteLength": 16235040,
      "uri": "scene.bin"
    }
  ],
  "extensionsUsed": [
    "KHR_materials_unlit"
  ],
  "images": [
    {
      "uri": "textures/muumiav_baseColor.jpeg"
    }
  ],
  "materials": [
    {
      "doubleSided": true,
      "extensions": {
        "KHR_materials_unlit": {}
      },
      "name": "muumiav",
      "pbrMetallicRoughness": {
        "baseColorTexture": {
          "index": 0
        },
        "metallicFactor": 0.0
      }
    }
  ],
  "meshes": [
    {
      "name": "Object_0",
      "primitives": [
        {
          "attributes": {
            "NORMAL": 1,
            "POSITION": 0,
            "TEXCOORD_0": 2
          },
          "indices": 3,
          "material": 0,
          "mode": 4
        }
      ]
    },
    {
      "name": "Object_1",
      "primitives": [
        {
          "attributes": {
            "NORMAL": 5,
            "POSITION": 4,
            "TEXCOORD_0": 6
          },
          "indices": 7,
          "material": 0,
          "mode": 4
        }
      ]
    },
    {
      "name": "Object_2",
      "primitives": [
        {
          "attributes": {
            "NORMAL": 9,
            "POSITION": 8,
            "TEXCOORD_0": 10
          },
          "indices": 11,
          "material": 0,
          "mode": 4
        }
      ]
    },
    {
      "name": "Object_3",
      "primitives": [
        {
          "attributes": {
            "NORMAL": 13,
            "POSITION": 12,
            "TEXCOORD_0": 14
          },
          "indices": 15,
          "material": 0,
          "mode": 4
        }
      ]
    },
    {
      "name": "Object_4",
      "primitives": [
        {
          "attributes": {
            "NORMAL": 17,
            "POSITION": 16,
            "TEXCOORD_0": 18
          },
          "indices": 19,
          "material": 0,
          "mode": 4
        }
      ]
    }
  ],
  "nodes": [
    {
      "children": [
        1
      ],
      "matrix": [
        0.9785693287849426,
        -0.002729234984144523,
        -0.20589955151081085,
        0.0,
        -0.20544064044952393,
        0.0550796613097193,
        -0.9771183729171753,
        0.0,
        0.01400766335427761,
        0.9984782338142395,
        0.05333857238292716,
        0.0,
        2.133110761642456,
        -0.5915722250938414,
        -0.721121907234192,
        1.0
      ],
      "name": "Sketchfab_model"
    },
    {
      "children": [
        2,
        3,
        4,
        5,
        6
      ],
      "name": "muumiav.obj.cleaner.materialmerger.gles"
    },
    {
      "mesh": 0,
      "name": "Object_2"
    },
    {
      "mesh": 1,
      "name": "Object_3"
    },
    {
      "mesh": 2,
      "name": "Object_4"
    },
    {
      "mesh": 3,
      "name": "Object_5"
    },
    {
      "mesh": 4,
      "name": "Object_6"
    }
  ],
  "samplers": [
    {
      "magFilter": 9729,
      "minFilter": 9987,
      "wrapS": 10497,
      "wrapT": 10497
    }
  ],
  "scene": 0,
  "scenes": [
    {
      "name": "Sketchfab_Scene",
      "nodes": [
        0
      ]
    }
  ],
  "textures": [
    {
      "sampler": 0,
      "source": 0
    }
  ]
}
