{
  "accessors": [
    {
      "bufferView": 2,
      "componentType": 5126,
      "count": 43724,
      "max": [
        0.15719154477119446,
        0.27612346410751343,
        0.08974185585975647
      ],
      "min": [
        -0.14331519603729248,
        -0.05799848586320877,
        -0.2893151342868805
      ],
      "type": "VEC3"
    },
    {
      "bufferView": 2,
      "byteOffset": 524688,
      "componentType": 5126,
      "count": 43724,
      "max": [
        0.9999395608901978,
        0.9999808073043823,
        0.9999731183052063
      ],
      "min": [
        -0.9999961256980896,
        -0.9994007349014282,
        -0.9999966621398926
      ],
      "type": "VEC3"
    },
    {
      "bufferView": 1,
      "componentType": 5126,
      "count": 43724,
      "max": [
        0.9976938962936401,
        0.9999686479568481
      ],
      "min": [
        4.159495802014135e-05,
        0.00012314083869569004
      ],
      "type": "VEC2"
    },
    {
      "bufferView": 1,
      "byteOffset": 349792,
      "componentType": 5126,
      "count": 43724,
      "max": [
        0.9976938962936401,
        0.9999686479568481
      ],
      "min": [
        4.159495802014135e-05,
        0.00012314083869569004
      ],
      "type": "VEC2"
    },
    {
      "bufferView": 1,
      "byteOffset": 699584,
      "componentType": 5126,
      "count": 43724,
      "max": [
        0.9976938962936401,
        0.9999686479568481
      ],
      "min": [
        4.159495802014135e-05,
        0.00012314083869569004
      ],
      "type": "VEC2"
    },
    {
      "bufferView": 1,
      "byteOffset": 1049376,
      "componentType": 5126,
      "count": 43724,
      "max": [
        0.9976938962936401,
        0.9999686479568481
      ],
      "min": [
        4.159495802014135e-05,
        0.00012314083869569004
      ],
      "type": "VEC2"
    },
    {
      "bufferView": 1,
      "byteOffset": 1399168,
      "componentType": 5126,
      "count": 43724,
      "max": [
        0.9976938962936401,
        0.9999686479568481
      ],
      "min": [
        4.159495802014135e-05,
        0.00012314083869569004
      ],
      "type": "VEC2"
    },
    {
      "bufferView": 0,
      "componentType": 5125,
      "count": 230439,
      "type": "SCALAR"
    }
  ],
  "asset": {
    "extras": {
      "author": "emm (https://sketchfab.com/edemaistre)",
      "license": "CC-BY-NC-SA-4.0 (http://creativecommons.org/licenses/by-nc-sa/4.0/)",
      "source": "https://sketchfab.com/3d-models/day-363-wooden-beaver-c44a61e2ee654aad8999387085865bb0",
      "title": "Day 363: Wooden beaver"
    },
    "generator": "Sketchfab-12.66.0",
    "version": "2.0"
  },
  "bufferViews": [
    {
      "buffer": 0,
      "byteLength": 921756,
      "name": "floatBufferViews",
      "target": 34963
    },
    {
      "buffer": 0,
      "byteLength": 1748960,
      "byteOffset": 921756,
      "byteStride": 8,
      "name": "floatBufferViews",
      "target": 34962
    },
    {
      "buffer": 0,
      "byteLength": 1049376,
      "byteOffset": 2670716,
      "byteStride": 12,
      "name": "floatBufferViews",
      "target": 34962
    }
  ],
  "buffers": [
    {
      "byteLength": 3720092,
      "uri": "scene.bin"
    }
  ],
  "extensionsUsed": [
    "KHR_materials_unlit"
  ],
  "images": [
    {
      "uri": "textures/material_0_baseColor.jpeg"
    }
  ],
  "materials": [
    {
      "extensions": {
        "KHR_materials_unlit": {}
      },
      "name": "material_0",
      "pbrMetallicRoughness": {
        "baseColorTexture": {
          "index": 0
        },
        "metallicFactor": 0.0
      }
    }
  ],
  "meshes": [
    {
      "name": "Object_0",
      "primitives": [
        {
          "attributes": {
            "NORMAL": 1,
            "POSITION": 0,
            "TEXCOORD_0": 2,
            "TEXCOORD_1": 3,
            "TEXCOORD_2": 4,
            "TEXCOORD_3": 5,
            "TEXCOORD_4": 6
          },
          "indices": 7,
          "material": 0,
          "mode": 4
        }
      ]
    }
  ],
  "nodes": [
    {
      "children": [
        1
      ],
      "matrix": [
        1.0,
        0.0,
        0.0,
        0.0,
        0.0,
        2.220446049250313e-16,
        -1.0,
        0.0,
        0.0,
        1.0,
        2.220446049250313e-16,
        0.0,
        0.0,
        0.0,
        0.0,
        1.0
      ],
      "name": "Sketchfab_model"
    },
    {
      "children": [
        2
      ],
      "name": "root"
    },
    {
      "children": [
        3
      ],
      "matrix": [
        1.0,
        0.0,
        0.0,
        0.0,
        0.0,
        2.220446049250313e-16,
        1.0,
        0.0,
        0.0,
        -1.0,
        2.220446049250313e-16,
        0.0,
        0.0,
        0.0,
        0.0,
        1.0
      ],
      "name": "GLTF_SceneRootNode"
    },
    {
      "children": [
        4
      ],
      "name": "_0"
    },
    {
      "mesh": 0,
      "name": "Object_4"
    }
  ],
  "samplers": [
    {
      "magFilter": 9729,
      "minFilter": 9987,
      "wrapS": 10497,
      "wrapT": 10497
    }
  ],
  "scene": 0,
  "scenes": [
    {
      "name": "Sketchfab_Scene",
      "nodes": [
        0
      ]
    }
  ],
  "textures": [
    {
      "sampler": 0,
      "source": 0
    }
  ]
}
