{
  "accessors": [
    {
      "bufferView": 2,
      "componentType": 5126,
      "count": 15197,
      "max": [
        11.666057586669922,
        20.322845458984375,
        26.398090362548828
      ],
      "min": [
        -6.223364353179932,
        -0.11277985572814941,
        -27.543067932128906
      ],
      "type": "VEC3"
    },
    {
      "bufferView": 2,
      "byteOffset": 182364,
      "componentType": 5126,
      "count": 15197,
      "max": [
        0.9999691247940063,
        0.9999604225158691,
        0.9999997019767761
      ],
      "min": [
        -0.9999691843986511,
        -0.9999890923500061,
        -0.9999998807907104
      ],
      "type": "VEC3"
    },
    {
      "bufferView": 1,
      "componentType": 5126,
      "count": 15197,
      "max": [
        0.9834802150726318,
        0.9921497106552124
      ],
      "min": [
        0.0077860355377197266,
        0.00841820240020752
      ],
      "type": "VEC2"
    },
    {
      "bufferView": 1,
      "byteOffset": 121576,
      "componentType": 5126,
      "count": 15197,
      "max": [
        0.9834802150726318,
        0.9921497106552124
      ],
      "min": [
        0.0077860355377197266,
        0.00841820240020752
      ],
      "type": "VEC2"
    },
    {
      "bufferView": 1,
      "byteOffset": 243152,
      "componentType": 5126,
      "count": 15197,
      "max": [
        0.9834802150726318,
        0.9921497106552124
      ],
      "min": [
        0.0077860355377197266,
        0.00841820240020752
      ],
      "type": "VEC2"
    },
    {
      "bufferView": 0,
      "componentType": 5125,
      "count": 77028,
      "type": "SCALAR"
    }
  ],
  "asset": {
    "extras": {
      "author": "House Doctor (https://sketchfab.com/chin4grci4)",
      "license": "CC-BY-4.0 (http://creativecommons.org/licenses/by/4.0/)",
      "source": "https://sketchfab.com/3d-models/ferret-fbx-7897b4c642f7429e873b08c790717c19",
      "title": "Ferret Fbx"
    },
    "generator": "Sketchfab-12.68.0",
    "version": "2.0"
  },
  "bufferViews": [
    {
      "buffer": 0,
      "byteLength": 308112,
      "name": "floatBufferViews",
      "target": 34963
    },
    {
      "buffer": 0,
      "byteLength": 364728,
      "byteOffset": 308112,
      "byteStride": 8,
      "name": "floatBufferViews",
      "target": 34962
    },
    {
      "buffer": 0,
      "byteLength": 364728,
      "byteOffset": 672840,
      "byteStride": 12,
      "name": "floatBufferViews",
      "target": 34962
    }
  ],
  "buffers": [
    {
      "byteLength": 1037568,
      "uri": "scene.bin"
    }
  ],
  "extensionsRequired": [
    "KHR_materials_pbrSpecularGlossiness"
  ],
  "extensionsUsed": [
    "KHR_materials_pbrSpecularGlossiness"
  ],
  "images": [
    {
      "uri": "textures/material_0_diffuse.png"
    },
    {
      "uri": "textures/material_0_specularGlossiness.png"
    }
  ],
  "materials": [
    {
      "doubleSided": true,
      "extensions": {
        "KHR_materials_pbrSpecularGlossiness": {
          "diffuseFactor": [
            1.0,
            1.0,
            1.0,
            1.0
          ],
          "diffuseTexture": {
            "index": 0
          },
          "glossinessFactor": 1.0,
          "specularFactor": [
            1.0,
            1.0,
            1.0
          ],
          "specularGlossinessTexture": {
            "index": 1
          }
        }
      },
      "name": "material_0"
    }
  ],
  "meshes": [
    {
      "name": "Object_0",
      "primitives": [
        {
          "attributes": {
            "NORMAL": 1,
            "POSITION": 0,
            "TEXCOORD_0": 2,
            "TEXCOORD_1": 3,
            "TEXCOORD_2": 4
          },
          "indices": 5,
          "material": 0,
          "mode": 4
        }
      ]
    }
  ],
  "nodes": [
    {
      "children": [
        1
      ],
      "matrix": [
        1.0,
        0.0,
        0.0,
        0.0,
        0.0,
        2.220446049250313e-16,
        -1.0,
        0.0,
        0.0,
        1.0,
        2.220446049250313e-16,
        0.0,
        0.0,
        0.0,
        0.0,
        1.0
      ],
      "name": "Sketchfab_model"
    },
    {
      "children": [
        2
      ],
      "name": "root"
    },
    {
      "children": [
        3
      ],
      "matrix": [
        1.0,
        0.0,
        0.0,
        0.0,
        0.0,
        2.220446049250313e-16,
        1.0,
        0.0,
        0.0,
        -1.0,
        2.220446049250313e-16,
        0.0,
        0.0,
        0.0,
        0.0,
        1.0
      ],
      "name": "GLTF_SceneRootNode"
    },
    {
      "children": [
        4
      ],
      "name": "root.1_0"
    },
    {
      "children": [
        5
      ],
      "matrix": [
        0.0734640232783699,
        0.0,
        0.011099221451355534,
        0.0,
        0.0,
        0.07429775595664978,
        0.0,
        0.0,
        -0.011099221451355534,
        0.0,
        0.0734640232783699,
        0.0,
        0.04119757190346718,
        -0.7929363250732422,
        -0.6405430436134338,
        1.0
      ],
      "name": "node_id30.2_1"
    },
    {
      "children": [
        6
      ],
      "name": "_2"
    },
    {
      "mesh": 0,
      "name": "Object_6"
    }
  ],
  "samplers": [
    {
      "magFilter": 9729,
      "minFilter": 9987,
      "wrapS": 10497,
      "wrapT": 10497
    }
  ],
  "scene": 0,
  "scenes": [
    {
      "name": "Sketchfab_Scene",
      "nodes": [
        0
      ]
    }
  ],
  "textures": [
    {
      "sampler": 0,
      "source": 0
    },
    {
      "sampler": 0,
      "source": 1
    }
  ]
}
